<?xml version="1.0" standalone="no"?>
<!DOCTYPE svg PUBLIC "-//W3C//DTD SVG 20010904//EN"
 "http://www.w3.org/TR/2001/REC-SVG-20010904/DTD/svg10.dtd">
<svg version="1.0" xmlns="http://www.w3.org/2000/svg"
 width="2835.000000pt" height="2835.000000pt" viewBox="0 0 2835.000000 2835.000000"
 preserveAspectRatio="xMidYMid meet">
<metadata>
Created by potrace 1.14, written by Peter Selinger 2001-2017
</metadata>
<g transform="translate(0.000000,2835.000000) scale(0.100000,-0.100000)"
fill="#000000" stroke="none">
<path d="M0 14175 l0 -14175 14175 0 14175 0 0 14175 0 14175 -14175 0 -14175
0 0 -14175z m14876 9395 c5 -5 47 -12 94 -15 185 -13 499 -63 542 -86 10 -5
31 -9 47 -9 16 0 41 -7 57 -15 16 -8 49 -17 73 -21 25 -4 51 -13 59 -20 7 -8
26 -14 42 -14 15 0 41 -7 56 -15 16 -8 39 -15 51 -15 12 0 25 -4 28 -10 3 -5
15 -10 25 -10 10 0 56 -16 102 -35 46 -20 100 -38 121 -41 22 -4 37 -12 37
-20 0 -8 6 -14 13 -14 7 0 32 -9 55 -20 22 -11 45 -20 50 -20 5 0 33 -13 63
-30 30 -16 61 -30 70 -30 9 0 35 -13 57 -30 23 -16 48 -30 56 -30 8 0 16 -4
18 -8 2 -4 25 -18 53 -31 27 -13 69 -37 93 -53 23 -16 58 -32 77 -35 19 -3 35
-11 35 -17 0 -14 82 -66 104 -66 9 0 16 -7 16 -15 0 -8 4 -15 10 -15 11 0 78
-43 101 -65 9 -8 21 -15 27 -15 7 0 12 -4 12 -9 0 -5 11 -12 25 -15 14 -4 25
-10 25 -15 0 -11 92 -71 108 -71 7 0 29 -17 50 -37 52 -51 80 -73 92 -73 6 0
10 -5 10 -10 0 -6 15 -18 34 -27 19 -9 40 -26 47 -39 7 -13 17 -24 23 -24 11
0 73 -50 116 -94 14 -14 31 -26 38 -26 6 0 17 -9 24 -20 7 -11 16 -20 21 -20
4 0 27 -19 51 -42 24 -24 85 -81 136 -128 51 -47 124 -115 162 -152 72 -70 83
-77 91 -55 2 7 8 8 13 3 5 -5 4 -11 -3 -13 -19 -7 -16 -19 10 -46 12 -14 64
-69 115 -123 166 -177 212 -229 212 -236 0 -5 7 -8 15 -8 8 0 17 -11 21 -25 3
-14 9 -25 13 -25 4 0 14 -11 21 -25 7 -13 21 -27 31 -30 10 -3 21 -15 24 -25
6 -19 41 -63 103 -128 17 -20 32 -41 32 -48 0 -7 4 -14 8 -16 10 -4 92 -112
92 -122 0 -4 10 -17 23 -30 12 -13 29 -33 37 -46 29 -44 85 -115 93 -118 4 -2
7 -8 7 -14 0 -10 33 -55 65 -89 8 -9 15 -20 15 -25 0 -11 23 -43 55 -79 11
-12 21 -29 23 -36 2 -8 11 -22 19 -32 17 -18 25 -31 62 -98 13 -23 29 -49 37
-56 7 -7 16 -22 19 -33 3 -11 11 -20 16 -20 5 0 9 -7 9 -16 0 -8 6 -21 13 -29
6 -7 26 -36 42 -65 17 -28 45 -74 63 -103 18 -29 36 -64 39 -79 3 -16 11 -28
17 -29 6 0 29 -36 51 -80 22 -43 43 -79 47 -79 5 0 8 -7 8 -16 0 -22 43 -94
57 -94 11 0 15 -9 27 -62 4 -15 17 -44 31 -64 14 -20 25 -47 25 -60 0 -13 4
-24 8 -24 5 0 21 -29 37 -65 16 -36 33 -65 36 -65 4 0 11 -15 14 -32 4 -18 18
-54 31 -80 13 -26 24 -54 24 -62 0 -7 7 -16 15 -20 8 -3 15 -14 15 -24 0 -19
30 -97 51 -136 6 -10 19 -42 29 -70 29 -85 42 -119 60 -166 16 -43 53 -162 64
-205 2 -11 14 -45 26 -75 12 -30 25 -71 30 -90 8 -35 15 -58 30 -95 5 -11 23
-81 40 -155 17 -74 38 -150 46 -168 8 -18 14 -42 14 -53 0 -11 9 -53 19 -92
30 -110 51 -209 51 -239 0 -16 4 -28 8 -28 5 0 14 -33 20 -72 6 -40 16 -93 21
-118 6 -25 10 -64 11 -87 0 -24 5 -43 10 -43 6 0 10 -14 10 -31 0 -18 11 -86
24 -153 13 -66 31 -170 40 -231 9 -60 23 -157 31 -215 28 -189 45 -324 45
-363 0 -21 7 -49 16 -62 9 -14 14 -35 11 -47 -3 -13 -2 -61 3 -108 28 -284 51
-488 55 -510 5 -23 12 -91 35 -335 5 -55 14 -147 20 -205 6 -58 15 -152 20
-210 5 -58 14 -132 20 -165 6 -32 22 -138 35 -235 30 -216 48 -317 69 -395 9
-32 16 -67 16 -77 0 -10 5 -18 10 -18 6 0 10 -16 10 -36 0 -21 8 -47 20 -61
11 -14 20 -34 20 -44 0 -11 3 -19 8 -19 8 0 25 -47 49 -135 8 -33 21 -71 28
-85 6 -14 17 -52 24 -85 7 -33 19 -71 26 -85 7 -14 16 -52 19 -85 4 -33 13
-98 21 -145 8 -47 16 -107 19 -135 3 -27 10 -93 17 -145 15 -127 8 -852 -9
-858 -7 -2 -12 -26 -12 -58 0 -71 -49 -416 -61 -429 -5 -5 -9 -27 -9 -50 0
-35 -10 -86 -60 -295 -19 -79 -42 -168 -55 -214 -8 -26 -15 -61 -15 -76 0 -16
-7 -35 -15 -44 -8 -8 -15 -21 -15 -28 1 -36 -124 -395 -142 -408 -3 -3 -9 -19
-13 -35 -7 -33 -26 -85 -60 -160 -12 -27 -28 -67 -36 -87 -7 -21 -16 -38 -20
-38 -3 0 -9 -13 -12 -29 -3 -16 -12 -35 -20 -42 -7 -8 -17 -26 -20 -41 -4 -15
-21 -49 -37 -75 -16 -26 -45 -81 -65 -120 -19 -40 -39 -73 -45 -73 -5 0 -10
-8 -10 -18 0 -17 -8 -30 -50 -79 -5 -7 -10 -15 -10 -18 0 -10 -62 -96 -87
-123 -13 -12 -23 -28 -23 -35 0 -7 -25 -38 -55 -71 -30 -32 -55 -62 -55 -67 0
-5 -7 -9 -16 -9 -9 0 -18 -8 -21 -17 -3 -10 -27 -36 -53 -58 -27 -22 -51 -48
-55 -57 -3 -10 -18 -21 -32 -24 -14 -4 -34 -15 -44 -25 -10 -10 -34 -25 -52
-33 -39 -16 -82 -67 -93 -111 -8 -32 -127 -282 -144 -302 -5 -7 -10 -18 -10
-25 0 -7 -11 -29 -23 -48 -13 -19 -43 -71 -67 -115 -23 -44 -49 -87 -56 -96
-8 -8 -14 -21 -14 -28 0 -6 -5 -17 -10 -24 -25 -29 -64 -95 -85 -143 -13 -29
-33 -59 -44 -66 -12 -7 -21 -19 -21 -26 0 -11 -33 -65 -50 -82 -3 -3 -14 -21
-24 -40 -11 -19 -24 -39 -29 -45 -4 -5 -40 -59 -80 -120 -39 -60 -75 -111 -79
-113 -4 -2 -8 -10 -8 -18 0 -8 -11 -24 -25 -36 -14 -12 -25 -28 -25 -35 0 -7
-9 -18 -20 -25 -11 -7 -20 -19 -20 -26 0 -7 -7 -15 -15 -18 -8 -3 -17 -16 -21
-27 -4 -12 -13 -29 -20 -37 -27 -30 -64 -78 -64 -84 0 -3 -7 -14 -16 -23 -31
-36 -104 -136 -104 -144 0 -5 -6 -9 -13 -9 -8 0 -19 -11 -25 -25 -12 -27 -17
-33 -61 -82 -14 -17 -35 -46 -46 -67 -11 -20 -28 -39 -37 -42 -10 -3 -18 -11
-18 -18 0 -7 -22 -36 -50 -64 -27 -28 -50 -55 -50 -59 0 -4 -28 -38 -63 -76
-34 -37 -73 -81 -87 -98 -14 -17 -34 -42 -46 -54 -12 -13 -24 -30 -27 -39 -4
-9 -13 -16 -22 -16 -8 0 -15 -4 -15 -9 0 -4 -27 -37 -60 -71 -33 -34 -60 -64
-60 -67 0 -4 -106 -117 -128 -136 -7 -7 -33 -32 -58 -57 -36 -36 -43 -50 -39
-70 4 -18 3 -21 -4 -11 -8 12 -13 12 -33 -1 -14 -9 -40 -32 -59 -52 -19 -20
-54 -56 -78 -79 -25 -23 -56 -52 -68 -64 -13 -13 -28 -23 -33 -23 -5 0 -12 -9
-15 -20 -3 -11 -9 -20 -13 -20 -4 0 -26 -18 -50 -40 -23 -22 -47 -40 -52 -40
-6 0 -10 -7 -10 -16 0 -9 -9 -18 -20 -21 -11 -3 -20 -9 -20 -14 0 -4 -35 -36
-77 -71 -72 -58 -95 -78 -158 -133 -12 -11 -35 -29 -51 -40 -15 -11 -37 -30
-48 -43 -11 -12 -24 -22 -28 -22 -5 0 -19 -10 -31 -23 -12 -13 -29 -27 -37
-30 -28 -12 -62 -37 -118 -84 -15 -13 -32 -23 -38 -23 -7 0 -14 -6 -17 -13 -2
-6 -38 -34 -78 -61 -41 -28 -82 -58 -92 -68 -10 -10 -25 -18 -35 -18 -9 0 -26
-10 -37 -23 -19 -22 -139 -97 -154 -97 -4 0 -16 -9 -26 -20 -10 -11 -26 -20
-37 -20 -10 0 -18 -4 -18 -10 0 -5 -18 -19 -40 -30 -57 -29 -109 -57 -155 -85
-22 -13 -52 -29 -67 -36 -16 -6 -28 -15 -28 -19 0 -5 -14 -11 -30 -15 -35 -8
-87 -32 -95 -45 -3 -5 -19 -11 -35 -15 -17 -4 -30 -10 -30 -15 0 -9 -79 -39
-125 -47 -16 -3 -34 -12 -40 -19 -9 -12 -222 -99 -272 -111 -13 -3 -23 -9 -23
-13 0 -4 -25 -11 -55 -15 -30 -3 -61 -12 -68 -19 -7 -7 -35 -16 -62 -20 -28
-4 -68 -14 -90 -22 -47 -17 -278 -62 -385 -76 -41 -5 -104 -14 -141 -20 -91
-15 -602 -4 -744 16 -60 8 -135 20 -165 25 -30 6 -86 15 -125 22 -38 6 -83 15
-100 19 -16 5 -59 16 -95 26 -36 9 -70 20 -76 25 -6 5 -31 13 -55 19 -109 24
-155 36 -164 41 -5 4 -25 10 -44 14 -19 4 -41 14 -49 21 -7 8 -22 14 -34 14
-11 0 -52 16 -91 35 -39 19 -79 35 -89 35 -10 0 -26 4 -36 9 -65 35 -236 110
-240 106 -3 -3 -20 6 -38 20 -18 14 -40 25 -48 25 -9 0 -16 4 -16 9 0 5 -12
12 -27 16 -16 3 -58 24 -95 46 -36 21 -74 39 -82 39 -9 0 -16 5 -16 10 0 6 -6
10 -14 10 -8 0 -16 7 -20 15 -3 8 -13 15 -22 15 -9 0 -27 9 -41 20 -14 11 -32
20 -39 20 -8 0 -14 5 -14 10 0 6 -5 10 -10 10 -16 0 -150 82 -150 92 0 4 -5 8
-11 8 -10 0 -115 65 -145 89 -6 5 -20 12 -32 15 -12 4 -30 18 -41 32 -10 13
-22 24 -25 24 -3 0 -40 24 -82 53 -42 28 -89 60 -105 70 -16 11 -29 22 -29 27
0 4 -15 17 -32 29 -18 11 -42 26 -53 33 -11 7 -33 23 -48 36 -16 12 -33 22
-38 22 -5 0 -28 19 -51 42 -53 53 -85 79 -125 103 -17 10 -37 29 -44 42 -7 13
-18 23 -25 23 -7 0 -18 9 -24 20 -6 11 -15 20 -20 20 -5 0 -29 19 -54 43 -25
23 -62 56 -82 72 -20 17 -61 54 -92 83 -30 28 -59 52 -64 52 -4 0 -8 7 -8 15
0 8 -5 15 -11 15 -7 0 -47 36 -90 80 -43 44 -83 80 -88 80 -5 0 -13 9 -16 20
-3 11 -13 20 -21 20 -8 0 -14 3 -14 8 0 12 -98 112 -109 112 -6 0 -11 4 -11 9
0 4 -12 21 -27 38 -16 16 -62 67 -103 113 -41 46 -87 97 -102 113 -16 17 -28
34 -28 38 0 5 -6 9 -13 9 -7 0 -26 20 -41 45 -16 25 -35 45 -42 45 -7 0 -15 8
-18 18 -3 10 -24 38 -46 62 -22 25 -48 57 -57 73 -10 15 -23 27 -30 27 -7 0
-15 11 -19 25 -3 14 -9 25 -13 25 -10 0 -111 135 -111 148 0 7 -5 12 -11 12
-10 0 -55 48 -74 81 -23 39 -50 75 -62 82 -7 4 -13 13 -13 19 0 5 -18 33 -40
60 -22 28 -40 54 -40 58 0 4 -16 25 -35 46 -19 21 -38 47 -41 58 -4 12 -14 28
-24 36 -9 8 -32 42 -50 75 -19 33 -40 66 -46 73 -7 6 -16 21 -19 32 -3 11 -10
20 -15 20 -4 0 -10 8 -14 18 -3 9 -15 31 -26 47 -11 17 -27 45 -37 63 -9 17
-20 32 -23 32 -4 0 -17 23 -30 50 -13 27 -27 50 -32 50 -4 0 -8 9 -8 20 0 11
-9 28 -20 37 -11 10 -20 22 -20 28 0 6 -14 32 -30 58 -16 26 -30 54 -30 62 0
8 -4 15 -8 15 -5 0 -19 25 -33 55 -13 30 -29 55 -36 55 -11 0 -15 9 -27 62 -4
15 -17 44 -31 64 -14 20 -25 47 -25 60 0 13 -4 24 -10 24 -5 0 -10 6 -10 13 0
7 -9 29 -20 50 -11 20 -20 46 -20 56 0 11 -6 26 -13 33 -6 7 -22 40 -35 73
-13 33 -30 75 -38 93 -8 18 -14 38 -14 44 0 20 -62 78 -83 78 -10 0 -31 8 -45
19 -15 10 -42 22 -60 26 -18 3 -32 13 -32 21 0 8 -8 14 -18 14 -10 0 -24 9
-32 20 -8 11 -20 20 -27 20 -14 0 -233 217 -233 230 0 5 -15 26 -32 48 -69 86
-78 97 -78 109 0 6 -3 13 -7 15 -14 6 -53 67 -53 83 0 8 -5 15 -10 15 -6 0
-28 37 -50 83 -22 45 -43 89 -48 97 -19 32 -92 188 -92 195 0 5 -8 27 -18 49
-10 23 -29 68 -41 101 -13 33 -27 69 -32 80 -5 11 -13 42 -19 68 -6 27 -19 66
-30 87 -11 22 -20 50 -20 62 0 13 -8 43 -16 68 -9 25 -20 61 -25 80 -4 19 -19
78 -32 130 -42 163 -109 523 -126 680 -6 52 -15 131 -21 175 -33 271 -40 789
-15 1135 12 180 44 427 65 510 4 19 11 59 15 88 4 28 11 52 15 52 5 0 14 34
21 75 6 42 16 78 20 81 5 3 9 17 9 31 0 14 6 39 14 56 12 28 28 67 79 202 7
17 16 33 21 37 6 3 13 35 17 70 4 35 14 99 23 143 9 44 21 114 27 155 6 41 26
161 44 266 19 104 37 220 41 257 4 37 11 67 15 67 5 0 9 20 9 46 0 25 6 75 14
112 17 78 39 205 62 347 8 55 27 152 41 215 13 63 35 174 48 245 13 72 40 213
60 315 20 102 40 208 45 235 5 28 14 74 19 104 6 29 8 57 5 62 -3 5 0 9 6 9 6
0 8 10 4 25 -3 14 -2 25 4 25 8 0 24 68 27 115 0 6 4 15 8 22 4 6 4 18 1 27
-3 9 -1 16 5 16 7 0 9 9 5 24 -3 13 -1 27 5 30 6 4 11 22 11 41 0 19 4 36 9
40 5 3 7 22 4 42 -4 24 -3 34 4 30 14 -9 25 47 16 80 -4 16 -2 24 4 20 12 -8
47 143 44 190 -1 17 5 38 14 46 8 9 15 31 15 49 0 19 4 38 8 44 5 5 15 41 22
79 7 39 16 77 20 85 11 23 80 322 80 346 0 11 7 29 15 40 8 10 15 36 15 56 0
20 4 38 8 40 4 2 20 53 35 113 15 61 35 135 43 165 9 30 23 84 31 120 8 36 22
70 29 76 8 6 14 24 14 39 0 15 7 43 16 63 30 68 33 77 40 112 3 19 10 40 14
45 5 6 22 48 38 95 16 47 37 99 45 115 9 17 33 73 53 125 21 52 43 104 50 115
7 11 16 37 19 58 4 20 13 37 20 37 8 0 17 15 20 33 10 44 47 127 57 127 4 0 8
9 8 20 0 10 14 41 30 67 16 26 30 57 30 69 0 32 10 54 25 54 7 0 16 11 19 25
4 14 10 25 15 25 5 0 12 14 16 30 4 17 10 30 13 30 4 0 25 36 47 80 22 43 46
79 53 80 6 0 12 7 12 15 0 17 22 60 75 145 19 30 42 70 50 88 8 17 20 32 25
32 6 0 10 9 10 19 0 11 3 21 8 23 11 4 102 145 102 157 0 6 10 20 23 33 12 13
28 35 36 50 7 14 26 40 41 57 16 17 31 39 35 49 3 11 14 27 25 37 11 10 20 24
20 30 0 7 7 15 15 19 8 3 15 15 15 26 0 11 6 20 13 20 6 0 27 26 46 56 19 31
41 58 48 61 7 3 15 13 18 24 4 10 13 19 21 19 8 0 14 9 14 19 0 11 3 21 8 23
11 5 122 150 122 160 0 4 7 8 15 8 8 0 15 3 15 8 0 4 12 21 26 37 14 17 35 43
47 59 12 16 38 46 57 67 19 21 64 70 100 110 77 85 400 409 491 492 35 32 83
76 106 98 23 21 45 39 48 39 4 0 19 12 35 28 33 32 57 52 64 52 5 0 49 37 85
71 9 9 23 25 31 37 8 12 22 22 31 22 16 0 76 41 116 79 12 11 26 21 32 21 5 0
27 15 49 33 83 66 97 77 105 77 9 0 31 17 55 43 9 9 22 17 30 17 7 0 23 10 35
23 12 12 40 31 62 42 22 11 48 27 57 35 9 8 38 26 64 40 26 14 74 42 105 63
32 20 65 37 74 37 8 0 15 4 15 8 0 5 23 19 50 32 28 13 50 27 50 32 0 4 13 8
29 8 16 0 31 6 34 13 3 6 40 30 84 52 43 22 80 43 83 46 3 4 24 12 48 19 23 7
42 17 42 22 0 4 14 8 30 8 17 0 30 4 30 9 0 10 88 54 132 66 12 3 46 17 73 30
82 39 126 55 150 55 13 0 25 7 28 14 3 8 23 18 44 21 21 4 52 13 68 20 17 7
46 18 65 24 19 6 71 22 115 36 44 14 90 25 103 25 12 0 22 5 22 10 0 6 18 10
39 10 22 0 46 6 53 14 8 7 36 16 63 20 28 4 75 15 105 23 30 8 111 26 180 38
69 13 132 26 140 29 19 8 169 24 330 36 69 5 126 14 128 20 5 13 704 14 718 0z"/>
<path d="M11445 15149 c-140 -23 -273 -127 -345 -268 -28 -56 -60 -170 -60
-215 0 -103 65 -252 144 -332 217 -216 585 -161 722 108 51 100 67 257 39 377
-42 178 -173 302 -346 331 -72 11 -83 11 -154 -1z"/>
<path d="M16943 15149 c-101 -17 -231 -98 -290 -181 -80 -112 -108 -207 -101
-340 5 -77 11 -99 43 -166 90 -180 274 -282 485 -269 207 13 350 136 405 350
19 73 19 90 -1 169 -71 289 -200 423 -425 441 -35 3 -88 1 -116 -4z"/>
<path d="M15105 11717 c-126 -33 -237 -125 -297 -248 -78 -159 -78 -291 -2
-446 62 -125 176 -207 324 -234 122 -21 253 19 351 109 64 58 98 118 129 221
92 311 -82 589 -379 606 -44 3 -97 -1 -126 -8z"/>
<path d="M13200 11654 c-86 -23 -138 -52 -200 -113 -148 -145 -173 -375 -61
-549 94 -144 230 -210 407 -199 206 12 364 161 394 370 33 225 -135 454 -364
496 -76 14 -108 13 -176 -5z"/>
<path d="M15510 9440 c-291 -30 -397 -32 -940 -20 -428 10 -642 10 -995 1
-247 -7 -452 -14 -455 -16 -4 -2 -125 -5 -269 -6 -157 -1 -286 -6 -320 -13
-141 -30 -233 -155 -217 -294 12 -99 62 -169 154 -214 82 -41 136 -43 542 -29
855 32 978 33 1520 20 443 -10 571 -10 745 1 116 7 332 16 480 19 183 5 280
11 300 19 97 42 165 145 165 250 0 130 -76 226 -207 265 -60 18 -388 29 -503
17z"/>
<path d="M13755 8429 c-99 -12 -178 -69 -218 -158 -44 -95 -17 -230 60 -303
88 -84 254 -108 598 -88 172 11 242 11 325 2 140 -16 174 -15 261 5 152 34
238 131 239 268 0 112 -61 202 -170 253 l-55 25 -495 1 c-272 1 -517 -2 -545
-5z"/>
</g>
</svg>
